<svg width="106" height="57" viewBox="0 0 106 57" fill="none" xmlns="http://www.w3.org/2000/svg">
<g filter="url(#filter0_b_7998_141)">
<path d="M0 10C0 4.47715 4.47715 0 10 0H76.5059C80.5997 0 84.28 2.49519 85.7955 6.29814L100.54 43.2981C103.157 49.865 98.3194 57 91.2503 57H10C4.47715 57 0 52.5228 0 47V10Z" fill="#171A40" style="fill:#171A40;fill:color(display-p3 0.0902 0.1020 0.2510);fill-opacity:1;"/>
</g>
<path d="M12.63 19.75C12.63 18.1447 12.938 16.88 13.554 15.956C14.1793 15.032 15.1827 14.57 16.564 14.57C17.9453 14.57 18.944 15.032 19.56 15.956C20.1853 16.88 20.498 18.1447 20.498 19.75C20.498 21.374 20.1853 22.648 19.56 23.572C18.944 24.496 17.9453 24.958 16.564 24.958C15.1827 24.958 14.1793 24.496 13.554 23.572C12.938 22.648 12.63 21.374 12.63 19.75ZM18.146 19.75C18.146 18.8073 18.0433 18.084 17.838 17.58C17.6327 17.0667 17.208 16.81 16.564 16.81C15.92 16.81 15.4953 17.0667 15.29 17.58C15.0847 18.084 14.982 18.8073 14.982 19.75C14.982 20.3847 15.0193 20.912 15.094 21.332C15.1687 21.7427 15.318 22.0787 15.542 22.34C15.7753 22.592 16.116 22.718 16.564 22.718C17.012 22.718 17.348 22.592 17.572 22.34C17.8053 22.0787 17.9593 21.7427 18.034 21.332C18.1087 20.912 18.146 20.3847 18.146 19.75ZM21.6788 23.082C21.9961 22.83 22.1408 22.7133 22.1128 22.732C23.0275 21.976 23.7461 21.3553 24.2688 20.87C24.8008 20.3847 25.2488 19.876 25.6128 19.344C25.9768 18.812 26.1588 18.294 26.1588 17.79C26.1588 17.4073 26.0701 17.1087 25.8928 16.894C25.7155 16.6793 25.4495 16.572 25.0948 16.572C24.7401 16.572 24.4601 16.7073 24.2548 16.978C24.0588 17.2393 23.9608 17.6127 23.9608 18.098H21.6508C21.6695 17.3047 21.8375 16.642 22.1548 16.11C22.4815 15.578 22.9061 15.186 23.4288 14.934C23.9608 14.682 24.5488 14.556 25.1928 14.556C26.3035 14.556 27.1388 14.8407 27.6988 15.41C28.2681 15.9793 28.5528 16.7213 28.5528 17.636C28.5528 18.6347 28.2121 19.5633 27.5308 20.422C26.8495 21.2713 25.9815 22.102 24.9268 22.914H28.7068V24.86H21.6788V23.082ZM31.1189 25.112C30.6989 25.112 30.3535 24.9907 30.0829 24.748C29.8215 24.496 29.6909 24.188 29.6909 23.824C29.6909 23.4507 29.8215 23.138 30.0829 22.886C30.3535 22.634 30.6989 22.508 31.1189 22.508C31.5295 22.508 31.8655 22.634 32.1269 22.886C32.3975 23.138 32.5329 23.4507 32.5329 23.824C32.5329 24.188 32.3975 24.496 32.1269 24.748C31.8655 24.9907 31.5295 25.112 31.1189 25.112ZM31.1189 19.414C30.6989 19.414 30.3535 19.2927 30.0829 19.05C29.8215 18.798 29.6909 18.49 29.6909 18.126C29.6909 17.7527 29.8215 17.44 30.0829 17.188C30.3535 16.936 30.6989 16.81 31.1189 16.81C31.5295 16.81 31.8655 16.936 32.1269 17.188C32.3975 17.44 32.5329 17.7527 32.5329 18.126C32.5329 18.49 32.3975 18.798 32.1269 19.05C31.8655 19.2927 31.5295 19.414 31.1189 19.414ZM33.8234 17.664C33.8607 16.6653 34.1874 15.8953 34.8034 15.354C35.4194 14.8127 36.2547 14.542 37.3094 14.542C38.0094 14.542 38.6067 14.6633 39.1014 14.906C39.6054 15.1487 39.9834 15.48 40.2354 15.9C40.4967 16.32 40.6274 16.7913 40.6274 17.314C40.6274 17.93 40.4734 18.434 40.1654 18.826C39.8574 19.2087 39.498 19.47 39.0874 19.61V19.666C39.6194 19.8433 40.0394 20.1373 40.3474 20.548C40.6554 20.9587 40.8094 21.486 40.8094 22.13C40.8094 22.7087 40.674 23.222 40.4034 23.67C40.142 24.1087 39.7547 24.454 39.2414 24.706C38.7374 24.958 38.1354 25.084 37.4354 25.084C36.3154 25.084 35.4194 24.8087 34.7474 24.258C34.0847 23.7073 33.7347 22.8767 33.6974 21.766H36.0214C36.0307 22.1767 36.1474 22.5033 36.3714 22.746C36.5954 22.9793 36.922 23.096 37.3514 23.096C37.7154 23.096 37.9954 22.9933 38.1914 22.788C38.3967 22.5733 38.4994 22.2933 38.4994 21.948C38.4994 21.5 38.3547 21.178 38.0654 20.982C37.7854 20.7767 37.3327 20.674 36.7074 20.674H36.2594V18.728H36.7074C37.1834 18.728 37.566 18.6487 37.8554 18.49C38.154 18.322 38.3034 18.028 38.3034 17.608C38.3034 17.272 38.21 17.0107 38.0234 16.824C37.8367 16.6373 37.58 16.544 37.2534 16.544C36.8987 16.544 36.6327 16.6513 36.4554 16.866C36.2874 17.0807 36.1894 17.3467 36.1614 17.664H33.8234ZM42.1319 23.082C42.4493 22.83 42.5939 22.7133 42.5659 22.732C43.4806 21.976 44.1993 21.3553 44.7219 20.87C45.2539 20.3847 45.7019 19.876 46.0659 19.344C46.4299 18.812 46.6119 18.294 46.6119 17.79C46.6119 17.4073 46.5233 17.1087 46.3459 16.894C46.1686 16.6793 45.9026 16.572 45.5479 16.572C45.1933 16.572 44.9133 16.7073 44.7079 16.978C44.5119 17.2393 44.4139 17.6127 44.4139 18.098H42.1039C42.1226 17.3047 42.2906 16.642 42.6079 16.11C42.9346 15.578 43.3593 15.186 43.8819 14.934C44.4139 14.682 45.0019 14.556 45.6459 14.556C46.7566 14.556 47.5919 14.8407 48.1519 15.41C48.7213 15.9793 49.0059 16.7213 49.0059 17.636C49.0059 18.6347 48.6653 19.5633 47.9839 20.422C47.3026 21.2713 46.4346 22.102 45.3799 22.914H49.1599V24.86H42.1319V23.082ZM51.572 25.112C51.152 25.112 50.8067 24.9907 50.536 24.748C50.2747 24.496 50.144 24.188 50.144 23.824C50.144 23.4507 50.2747 23.138 50.536 22.886C50.8067 22.634 51.152 22.508 51.572 22.508C51.9827 22.508 52.3187 22.634 52.58 22.886C52.8507 23.138 52.986 23.4507 52.986 23.824C52.986 24.188 52.8507 24.496 52.58 24.748C52.3187 24.9907 51.9827 25.112 51.572 25.112ZM51.572 19.414C51.152 19.414 50.8067 19.2927 50.536 19.05C50.2747 18.798 50.144 18.49 50.144 18.126C50.144 17.7527 50.2747 17.44 50.536 17.188C50.8067 16.936 51.152 16.81 51.572 16.81C51.9827 16.81 52.3187 16.936 52.58 17.188C52.8507 17.44 52.986 17.7527 52.986 18.126C52.986 18.49 52.8507 18.798 52.58 19.05C52.3187 19.2927 51.9827 19.414 51.572 19.414ZM54.1925 19.75C54.1925 18.1447 54.5005 16.88 55.1165 15.956C55.7418 15.032 56.7452 14.57 58.1265 14.57C59.5078 14.57 60.5065 15.032 61.1225 15.956C61.7478 16.88 62.0605 18.1447 62.0605 19.75C62.0605 21.374 61.7478 22.648 61.1225 23.572C60.5065 24.496 59.5078 24.958 58.1265 24.958C56.7452 24.958 55.7418 24.496 55.1165 23.572C54.5005 22.648 54.1925 21.374 54.1925 19.75ZM59.7085 19.75C59.7085 18.8073 59.6058 18.084 59.4005 17.58C59.1952 17.0667 58.7705 16.81 58.1265 16.81C57.4825 16.81 57.0578 17.0667 56.8525 17.58C56.6472 18.084 56.5445 18.8073 56.5445 19.75C56.5445 20.3847 56.5818 20.912 56.6565 21.332C56.7312 21.7427 56.8805 22.0787 57.1045 22.34C57.3378 22.592 57.6785 22.718 58.1265 22.718C58.5745 22.718 58.9105 22.592 59.1345 22.34C59.3678 22.0787 59.5218 21.7427 59.5965 21.332C59.6712 20.912 59.7085 20.3847 59.7085 19.75ZM69.8493 16.572L66.3353 25H63.8853L67.4413 16.838H63.0873V14.794H69.8493V16.572Z" fill="#FAFAFB" style="fill:#FAFAFB;fill:color(display-p3 0.9804 0.9804 0.9843);fill-opacity:1;"/>
<defs>
<filter id="filter0_b_7998_141" x="-4" y="-4" width="109.26" height="65" filterUnits="userSpaceOnUse" color-interpolation-filters="sRGB">
<feFlood flood-opacity="0" result="BackgroundImageFix"/>
<feGaussianBlur in="BackgroundImageFix" stdDeviation="2"/>
<feComposite in2="SourceAlpha" operator="in" result="effect1_backgroundBlur_7998_141"/>
<feBlend mode="normal" in="SourceGraphic" in2="effect1_backgroundBlur_7998_141" result="shape"/>
</filter>
</defs>
</svg>
