<svg width="157" height="28" viewBox="0 0 157 28" fill="none" xmlns="http://www.w3.org/2000/svg">
<path d="M0 24.68H24V0.68H0V24.68ZM38.2146 23C37.7666 23 37.3986 22.864 37.1106 22.592C36.8226 22.304 36.6786 21.952 36.6786 21.536V7.616H39.7986V21.536C39.7986 21.952 39.6466 22.304 39.3426 22.592C39.0546 22.864 38.6786 23 38.2146 23ZM32.9106 8.96C32.4946 8.96 32.1426 8.832 31.8546 8.576C31.5826 8.32 31.4466 7.984 31.4466 7.568C31.4466 7.152 31.5826 6.824 31.8546 6.584C32.1426 6.328 32.4946 6.2 32.9106 6.2H43.5666C43.9826 6.2 44.3266 6.328 44.5986 6.584C44.8866 6.84 45.0306 7.176 45.0306 7.592C45.0306 8.008 44.8866 8.344 44.5986 8.6C44.3266 8.84 43.9826 8.96 43.5666 8.96H32.9106ZM56.8832 16.592C56.8832 17.904 56.5872 19.064 55.9952 20.072C55.4192 21.064 54.6352 21.84 53.6432 22.4C52.6672 22.96 51.5712 23.24 50.3552 23.24C49.1392 23.24 48.0352 22.96 47.0432 22.4C46.0672 21.84 45.2832 21.064 44.6912 20.072C44.1152 19.064 43.8272 17.904 43.8272 16.592C43.8272 15.28 44.1152 14.128 44.6912 13.136C45.2832 12.128 46.0672 11.344 47.0432 10.784C48.0352 10.208 49.1392 9.92 50.3552 9.92C51.5712 9.92 52.6672 10.208 53.6432 10.784C54.6352 11.344 55.4192 12.128 55.9952 13.136C56.5872 14.128 56.8832 15.28 56.8832 16.592ZM54.0032 16.592C54.0032 15.776 53.8352 15.072 53.4992 14.48C53.1792 13.872 52.7392 13.4 52.1792 13.064C51.6352 12.728 51.0272 12.56 50.3552 12.56C49.6832 12.56 49.0672 12.728 48.5072 13.064C47.9632 13.4 47.5232 13.872 47.1872 14.48C46.8672 15.072 46.7072 15.776 46.7072 16.592C46.7072 17.392 46.8672 18.096 47.1872 18.704C47.5232 19.296 47.9632 19.76 48.5072 20.096C49.0672 20.432 49.6832 20.6 50.3552 20.6C51.0272 20.6 51.6352 20.432 52.1792 20.096C52.7392 19.76 53.1792 19.296 53.4992 18.704C53.8352 18.096 54.0032 17.392 54.0032 16.592ZM66.0518 9.92C67.1718 9.92 68.1718 10.208 69.0518 10.784C69.9478 11.344 70.6518 12.12 71.1638 13.112C71.6918 14.104 71.9557 15.256 71.9557 16.568C71.9557 17.88 71.6918 19.04 71.1638 20.048C70.6518 21.04 69.9558 21.824 69.0758 22.4C68.2118 22.96 67.2358 23.24 66.1478 23.24C65.5078 23.24 64.9078 23.136 64.3478 22.928C63.7878 22.72 63.2918 22.456 62.8598 22.136C62.4438 21.816 62.1158 21.496 61.8758 21.176C61.6518 20.84 61.5398 20.56 61.5398 20.336L62.2838 20.024V26.336C62.2838 26.752 62.1478 27.096 61.8758 27.368C61.6038 27.656 61.2598 27.8 60.8438 27.8C60.4278 27.8 60.0838 27.664 59.8118 27.392C59.5398 27.12 59.4038 26.768 59.4038 26.336V11.624C59.4038 11.208 59.5398 10.864 59.8118 10.592C60.0838 10.304 60.4278 10.16 60.8438 10.16C61.2598 10.16 61.6038 10.304 61.8758 10.592C62.1478 10.864 62.2838 11.208 62.2838 11.624V12.8L61.8758 12.584C61.8758 12.376 61.9878 12.128 62.2118 11.84C62.4358 11.536 62.7398 11.24 63.1238 10.952C63.5078 10.648 63.9478 10.4 64.4438 10.208C64.9558 10.016 65.4918 9.92 66.0518 9.92ZM65.6918 12.56C64.9878 12.56 64.3718 12.736 63.8438 13.088C63.3158 13.44 62.8998 13.92 62.5958 14.528C62.3078 15.12 62.1638 15.8 62.1638 16.568C62.1638 17.32 62.3078 18.008 62.5958 18.632C62.8998 19.24 63.3158 19.72 63.8438 20.072C64.3718 20.424 64.9878 20.6 65.6918 20.6C66.3958 20.6 67.0038 20.424 67.5158 20.072C68.0438 19.72 68.4518 19.24 68.7398 18.632C69.0438 18.008 69.1958 17.32 69.1958 16.568C69.1958 15.8 69.0438 15.12 68.7398 14.528C68.4518 13.92 68.0438 13.44 67.5158 13.088C67.0038 12.736 66.3958 12.56 65.6918 12.56ZM86.8406 23.24C85.7206 23.24 84.7126 23.104 83.8166 22.832C82.9206 22.544 82.0646 22.048 81.2486 21.344C81.0406 21.168 80.8806 20.968 80.7686 20.744C80.6566 20.52 80.6006 20.296 80.6006 20.072C80.6006 19.704 80.7286 19.384 80.9846 19.112C81.2566 18.824 81.5926 18.68 81.9926 18.68C82.2966 18.68 82.5686 18.776 82.8086 18.968C83.4166 19.464 84.0166 19.84 84.6086 20.096C85.2166 20.352 85.9606 20.48 86.8406 20.48C87.4326 20.48 87.9766 20.392 88.4726 20.216C88.9686 20.024 89.3686 19.776 89.6726 19.472C89.9766 19.152 90.1286 18.792 90.1286 18.392C90.1286 17.912 89.9846 17.504 89.6966 17.168C89.4086 16.832 88.9686 16.552 88.3766 16.328C87.7846 16.088 87.0326 15.904 86.1206 15.776C85.2566 15.648 84.4966 15.456 83.8406 15.2C83.1846 14.928 82.6326 14.592 82.1846 14.192C81.7526 13.776 81.4246 13.296 81.2006 12.752C80.9766 12.192 80.8646 11.568 80.8646 10.88C80.8646 9.84 81.1286 8.952 81.6566 8.216C82.2006 7.48 82.9286 6.92 83.8406 6.536C84.7526 6.152 85.7606 5.96 86.8646 5.96C87.9046 5.96 88.8646 6.12 89.7446 6.44C90.6406 6.744 91.3686 7.136 91.9286 7.616C92.3926 7.984 92.6246 8.408 92.6246 8.888C92.6246 9.24 92.4886 9.56 92.2166 9.848C91.9446 10.136 91.6246 10.28 91.2566 10.28C91.0166 10.28 90.8006 10.208 90.6086 10.064C90.3526 9.84 90.0086 9.632 89.5766 9.44C89.1446 9.232 88.6886 9.064 88.2086 8.936C87.7286 8.792 87.2806 8.72 86.8646 8.72C86.1766 8.72 85.5926 8.808 85.1126 8.984C84.6486 9.16 84.2966 9.4 84.0566 9.704C83.8166 10.008 83.6966 10.36 83.6966 10.76C83.6966 11.24 83.8326 11.64 84.1046 11.96C84.3926 12.264 84.8006 12.512 85.3286 12.704C85.8566 12.88 86.4886 13.04 87.2246 13.184C88.1846 13.36 89.0246 13.568 89.7446 13.808C90.4806 14.048 91.0886 14.36 91.5686 14.744C92.0486 15.112 92.4086 15.584 92.6486 16.16C92.8886 16.72 93.0086 17.408 93.0086 18.224C93.0086 19.264 92.7206 20.16 92.1446 20.912C91.5686 21.664 90.8086 22.24 89.8646 22.64C88.9366 23.04 87.9286 23.24 86.8406 23.24ZM101.569 23.24C100.209 23.24 99.0249 22.96 98.0169 22.4C97.0249 21.824 96.2569 21.048 95.7129 20.072C95.1849 19.096 94.9209 17.992 94.9209 16.76C94.9209 15.32 95.2089 14.096 95.7849 13.088C96.3769 12.064 97.1449 11.28 98.0889 10.736C99.0329 10.192 100.033 9.92 101.089 9.92C101.905 9.92 102.673 10.088 103.393 10.424C104.129 10.76 104.777 11.224 105.337 11.816C105.897 12.392 106.337 13.064 106.657 13.832C106.993 14.6 107.161 15.416 107.161 16.28C107.145 16.664 106.993 16.976 106.705 17.216C106.417 17.456 106.081 17.576 105.697 17.576H96.5289L95.8089 15.176H104.617L104.089 15.656V15.008C104.057 14.544 103.889 14.128 103.585 13.76C103.297 13.392 102.929 13.104 102.481 12.896C102.049 12.672 101.585 12.56 101.089 12.56C100.609 12.56 100.161 12.624 99.7449 12.752C99.3289 12.88 98.9689 13.096 98.6649 13.4C98.3609 13.704 98.1209 14.112 97.9449 14.624C97.7689 15.136 97.6809 15.784 97.6809 16.568C97.6809 17.432 97.8569 18.168 98.2089 18.776C98.5769 19.368 99.0409 19.824 99.6009 20.144C100.177 20.448 100.785 20.6 101.425 20.6C102.017 20.6 102.489 20.552 102.841 20.456C103.193 20.36 103.473 20.248 103.681 20.12C103.905 19.976 104.105 19.856 104.281 19.76C104.569 19.616 104.841 19.544 105.097 19.544C105.449 19.544 105.737 19.664 105.961 19.904C106.201 20.144 106.321 20.424 106.321 20.744C106.321 21.176 106.097 21.568 105.649 21.92C105.233 22.272 104.649 22.584 103.897 22.856C103.145 23.112 102.369 23.24 101.569 23.24ZM112.797 21.536C112.797 21.952 112.653 22.304 112.365 22.592C112.093 22.864 111.749 23 111.333 23C110.933 23 110.597 22.864 110.325 22.592C110.053 22.304 109.917 21.952 109.917 21.536V6.704C109.917 6.288 110.053 5.944 110.325 5.672C110.613 5.384 110.965 5.24 111.381 5.24C111.797 5.24 112.133 5.384 112.389 5.672C112.661 5.944 112.797 6.288 112.797 6.704V21.536ZM119.266 21.536C119.266 21.952 119.122 22.304 118.834 22.592C118.562 22.864 118.218 23 117.802 23C117.402 23 117.066 22.864 116.794 22.592C116.522 22.304 116.386 21.952 116.386 21.536V6.704C116.386 6.288 116.522 5.944 116.794 5.672C117.082 5.384 117.434 5.24 117.85 5.24C118.266 5.24 118.602 5.384 118.858 5.672C119.13 5.944 119.266 6.288 119.266 6.704V21.536ZM128.428 23.24C127.068 23.24 125.884 22.96 124.876 22.4C123.884 21.824 123.116 21.048 122.572 20.072C122.044 19.096 121.78 17.992 121.78 16.76C121.78 15.32 122.068 14.096 122.644 13.088C123.236 12.064 124.004 11.28 124.948 10.736C125.892 10.192 126.892 9.92 127.948 9.92C128.764 9.92 129.532 10.088 130.252 10.424C130.988 10.76 131.636 11.224 132.196 11.816C132.756 12.392 133.196 13.064 133.516 13.832C133.852 14.6 134.02 15.416 134.02 16.28C134.004 16.664 133.852 16.976 133.564 17.216C133.276 17.456 132.94 17.576 132.556 17.576H123.388L122.668 15.176H131.476L130.948 15.656V15.008C130.916 14.544 130.748 14.128 130.444 13.76C130.156 13.392 129.788 13.104 129.34 12.896C128.908 12.672 128.444 12.56 127.948 12.56C127.468 12.56 127.02 12.624 126.604 12.752C126.188 12.88 125.828 13.096 125.524 13.4C125.22 13.704 124.98 14.112 124.804 14.624C124.628 15.136 124.54 15.784 124.54 16.568C124.54 17.432 124.716 18.168 125.068 18.776C125.436 19.368 125.9 19.824 126.46 20.144C127.036 20.448 127.644 20.6 128.284 20.6C128.876 20.6 129.348 20.552 129.7 20.456C130.052 20.36 130.332 20.248 130.54 20.12C130.764 19.976 130.964 19.856 131.14 19.76C131.428 19.616 131.7 19.544 131.956 19.544C132.308 19.544 132.596 19.664 132.82 19.904C133.06 20.144 133.18 20.424 133.18 20.744C133.18 21.176 132.956 21.568 132.508 21.92C132.092 22.272 131.508 22.584 130.756 22.856C130.004 23.112 129.228 23.24 128.428 23.24ZM137.977 23C137.561 23 137.217 22.864 136.945 22.592C136.673 22.304 136.537 21.952 136.537 21.536V11.624C136.537 11.208 136.673 10.864 136.945 10.592C137.217 10.304 137.561 10.16 137.977 10.16C138.393 10.16 138.737 10.304 139.009 10.592C139.281 10.864 139.417 11.208 139.417 11.624V13.88L139.249 12.272C139.425 11.888 139.649 11.552 139.921 11.264C140.209 10.96 140.529 10.712 140.881 10.52C141.233 10.312 141.609 10.16 142.009 10.064C142.409 9.968 142.809 9.92 143.209 9.92C143.689 9.92 144.089 10.056 144.409 10.328C144.745 10.6 144.913 10.92 144.913 11.288C144.913 11.816 144.777 12.2 144.505 12.44C144.233 12.664 143.937 12.776 143.617 12.776C143.313 12.776 143.033 12.72 142.777 12.608C142.537 12.496 142.257 12.44 141.937 12.44C141.649 12.44 141.353 12.512 141.049 12.656C140.761 12.784 140.489 12.992 140.233 13.28C139.993 13.568 139.793 13.928 139.633 14.36C139.489 14.776 139.417 15.272 139.417 15.848V21.536C139.417 21.952 139.281 22.304 139.009 22.592C138.737 22.864 138.393 23 137.977 23ZM146.199 21.008C146.039 20.784 145.967 20.496 145.983 20.144C145.999 19.792 146.207 19.488 146.607 19.232C146.863 19.072 147.135 19.008 147.423 19.04C147.711 19.056 147.991 19.2 148.263 19.472C148.727 19.936 149.215 20.296 149.727 20.552C150.239 20.808 150.879 20.936 151.647 20.936C151.887 20.92 152.151 20.888 152.439 20.84C152.727 20.776 152.975 20.648 153.183 20.456C153.407 20.248 153.519 19.936 153.519 19.52C153.519 19.168 153.399 18.888 153.159 18.68C152.919 18.472 152.599 18.296 152.199 18.152C151.815 18.008 151.383 17.872 150.903 17.744C150.407 17.6 149.895 17.44 149.367 17.264C148.855 17.088 148.383 16.864 147.951 16.592C147.519 16.304 147.167 15.928 146.895 15.464C146.623 15 146.487 14.416 146.487 13.712C146.487 12.912 146.711 12.232 147.159 11.672C147.607 11.112 148.183 10.68 148.887 10.376C149.607 10.072 150.359 9.92 151.143 9.92C151.639 9.92 152.159 9.984 152.703 10.112C153.247 10.224 153.767 10.416 154.263 10.688C154.759 10.944 155.175 11.288 155.511 11.72C155.687 11.96 155.791 12.248 155.823 12.584C155.855 12.92 155.703 13.224 155.367 13.496C155.127 13.688 154.847 13.776 154.527 13.76C154.207 13.728 153.943 13.616 153.735 13.424C153.463 13.072 153.095 12.792 152.631 12.584C152.183 12.376 151.663 12.272 151.071 12.272C150.831 12.272 150.567 12.304 150.279 12.368C150.007 12.416 149.767 12.536 149.559 12.728C149.351 12.904 149.247 13.192 149.247 13.592C149.247 13.96 149.367 14.256 149.607 14.48C149.847 14.688 150.167 14.864 150.567 15.008C150.983 15.136 151.423 15.264 151.887 15.392C152.367 15.52 152.855 15.672 153.351 15.848C153.847 16.024 154.303 16.256 154.719 16.544C155.135 16.832 155.471 17.208 155.727 17.672C155.983 18.12 156.111 18.696 156.111 19.4C156.111 20.216 155.871 20.912 155.391 21.488C154.911 22.064 154.311 22.504 153.591 22.808C152.871 23.096 152.135 23.24 151.383 23.24C150.439 23.24 149.495 23.08 148.551 22.76C147.607 22.424 146.823 21.84 146.199 21.008Z" fill="#8EE4BA" style="fill:#8EE4BA;fill:color(display-p3 0.5569 0.8941 0.7294);fill-opacity:1;"/>
</svg>
