<svg width="321" height="185" viewBox="0 0 321 185" fill="none" xmlns="http://www.w3.org/2000/svg">
<g filter="url(#filter0_b_8016_1204)">
<rect x="0.927002" y="0.651428" width="320" height="184" rx="16" fill="#171A40" style="fill:#171A40;fill:color(display-p3 0.0902 0.1020 0.2510);fill-opacity:1;"/>
<rect x="1.927" y="1.65143" width="318" height="182" rx="15" stroke="#4A5094" style="stroke:#4A5094;stroke:color(display-p3 0.2902 0.3137 0.5804);stroke-opacity:1;" stroke-width="2"/>
</g>
<path d="M17.1688 149.791C16.4034 149.791 15.7501 149.577 15.2088 149.147C14.6674 148.718 14.2568 148.125 13.9768 147.369C13.7061 146.613 13.5708 145.741 13.5708 144.751C13.5708 143.762 13.7061 142.889 13.9768 142.133C14.2568 141.377 14.6674 140.785 15.2088 140.355C15.7501 139.926 16.4034 139.711 17.1688 139.711C17.9341 139.711 18.5874 139.926 19.1288 140.355C19.6701 140.785 20.0761 141.377 20.3468 142.133C20.6268 142.889 20.7668 143.762 20.7668 144.751C20.7668 145.741 20.6268 146.613 20.3468 147.369C20.0761 148.125 19.6701 148.718 19.1288 149.147C18.5874 149.577 17.9341 149.791 17.1688 149.791ZM17.1688 148.447C17.8501 148.447 18.3774 148.125 18.7508 147.481C19.1334 146.837 19.3248 145.927 19.3248 144.751C19.3248 143.575 19.1334 142.665 18.7508 142.021C18.3774 141.377 17.8501 141.055 17.1688 141.055C16.4874 141.055 15.9554 141.377 15.5728 142.021C15.1994 142.665 15.0128 143.575 15.0128 144.751C15.0128 145.927 15.1994 146.837 15.5728 147.481C15.9554 148.125 16.4874 148.447 17.1688 148.447ZM22.887 149.637C22.663 149.637 22.4903 149.577 22.369 149.455C22.257 149.334 22.201 149.157 22.201 148.923V148.657C22.201 148.433 22.257 148.261 22.369 148.139C22.4903 148.018 22.663 147.957 22.887 147.957H23.027C23.2603 147.957 23.433 148.018 23.545 148.139C23.6663 148.261 23.727 148.433 23.727 148.657V148.923C23.727 149.399 23.4937 149.637 23.027 149.637H22.887ZM28.2308 143.099C28.8375 143.099 29.3882 143.239 29.8828 143.519C30.3775 143.79 30.7648 144.173 31.0448 144.667C31.3248 145.153 31.4648 145.699 31.4648 146.305C31.4648 146.949 31.2968 147.533 30.9608 148.055C30.6342 148.578 30.1815 148.993 29.6028 149.301C29.0335 149.6 28.4082 149.749 27.7268 149.749C27.3442 149.749 26.9615 149.689 26.5788 149.567C26.1962 149.446 25.8742 149.278 25.6128 149.063C25.5195 148.989 25.4448 148.891 25.3888 148.769C25.3328 148.648 25.3048 148.527 25.3048 148.405C25.3048 148.265 25.3608 148.139 25.4728 148.027C25.5942 147.906 25.7482 147.845 25.9348 147.845C26.0562 147.845 26.2195 147.915 26.4248 148.055C26.8448 148.363 27.2742 148.517 27.7128 148.517C28.1608 148.517 28.5668 148.419 28.9308 148.223C29.3042 148.027 29.5982 147.761 29.8128 147.425C30.0275 147.089 30.1348 146.721 30.1348 146.319C30.1348 145.722 29.9388 145.241 29.5468 144.877C29.1548 144.513 28.6602 144.331 28.0628 144.331C27.8108 144.331 27.5868 144.364 27.3908 144.429C27.2042 144.495 26.9755 144.593 26.7048 144.723C26.5928 144.779 26.4808 144.831 26.3688 144.877C26.2662 144.915 26.1775 144.933 26.1028 144.933C25.8322 144.933 25.6315 144.854 25.5008 144.695C25.3702 144.537 25.3048 144.355 25.3048 144.149L25.3188 144.009L25.8228 140.383C25.8508 140.234 25.9255 140.108 26.0468 140.005C26.1775 139.903 26.3315 139.851 26.5088 139.851H30.6248C30.8022 139.851 30.9468 139.912 31.0588 140.033C31.1802 140.155 31.2408 140.304 31.2408 140.481C31.2408 140.659 31.1802 140.808 31.0588 140.929C30.9468 141.041 30.8022 141.097 30.6248 141.097H26.9708L26.6068 143.491C26.8122 143.379 27.0595 143.286 27.3488 143.211C27.6475 143.137 27.9415 143.099 28.2308 143.099Z" fill="#B2BAE9" style="fill:#B2BAE9;fill:color(display-p3 0.6980 0.7294 0.9137);fill-opacity:1;"/>
<path d="M16.049 103.851C16.2357 103.861 16.385 103.931 16.497 104.061C16.6183 104.183 16.679 104.337 16.679 104.523V112.979C16.679 113.166 16.609 113.325 16.469 113.455C16.329 113.586 16.1563 113.651 15.951 113.651C15.7457 113.651 15.5777 113.586 15.447 113.455C15.3163 113.325 15.251 113.166 15.251 112.979V105.699L14.019 106.441C13.9163 106.507 13.7997 106.539 13.669 106.539C13.4823 106.539 13.3237 106.469 13.193 106.329C13.0623 106.18 12.997 106.021 12.997 105.853C12.997 105.741 13.0297 105.634 13.095 105.531C13.1603 105.429 13.2443 105.345 13.347 105.279L15.559 103.949C15.6897 103.884 15.853 103.851 16.049 103.851ZM19.3052 113.637C19.0812 113.637 18.9085 113.577 18.7872 113.455C18.6752 113.334 18.6192 113.157 18.6192 112.923V112.657C18.6192 112.433 18.6752 112.261 18.7872 112.139C18.9085 112.018 19.0812 111.957 19.3052 111.957H19.4452C19.6785 111.957 19.8512 112.018 19.9632 112.139C20.0845 112.261 20.1452 112.433 20.1452 112.657V112.923C20.1452 113.399 19.9119 113.637 19.4452 113.637H19.3052ZM25.167 113.791C24.4017 113.791 23.7484 113.577 23.207 113.147C22.6657 112.718 22.255 112.125 21.975 111.369C21.7044 110.613 21.569 109.741 21.569 108.751C21.569 107.762 21.7044 106.889 21.975 106.133C22.255 105.377 22.6657 104.785 23.207 104.355C23.7484 103.926 24.4017 103.711 25.167 103.711C25.9324 103.711 26.5857 103.926 27.127 104.355C27.6684 104.785 28.0744 105.377 28.345 106.133C28.625 106.889 28.765 107.762 28.765 108.751C28.765 109.741 28.625 110.613 28.345 111.369C28.0744 112.125 27.6684 112.718 27.127 113.147C26.5857 113.577 25.9324 113.791 25.167 113.791ZM25.167 112.447C25.8484 112.447 26.3757 112.125 26.749 111.481C27.1317 110.837 27.323 109.927 27.323 108.751C27.323 107.575 27.1317 106.665 26.749 106.021C26.3757 105.377 25.8484 105.055 25.167 105.055C24.4857 105.055 23.9537 105.377 23.571 106.021C23.1977 106.665 23.011 107.575 23.011 108.751C23.011 109.927 23.1977 110.837 23.571 111.481C23.9537 112.125 24.4857 112.447 25.167 112.447Z" fill="#B2BAE9" style="fill:#B2BAE9;fill:color(display-p3 0.6980 0.7294 0.9137);fill-opacity:1;"/>
<path d="M16.0488 67.8514C16.2354 67.8608 16.3848 67.9308 16.4968 68.0614C16.6181 68.1828 16.6788 68.3368 16.6788 68.5234V76.9794C16.6788 77.1661 16.6088 77.3248 16.4688 77.4554C16.3288 77.5861 16.1561 77.6514 15.9508 77.6514C15.7454 77.6514 15.5774 77.5861 15.4468 77.4554C15.3161 77.3248 15.2508 77.1661 15.2508 76.9794V69.6994L14.0188 70.4414C13.9161 70.5068 13.7994 70.5394 13.6688 70.5394C13.4821 70.5394 13.3234 70.4694 13.1928 70.3294C13.0621 70.1801 12.9968 70.0214 12.9968 69.8534C12.9968 69.7414 13.0294 69.6341 13.0948 69.5314C13.1601 69.4288 13.2441 69.3448 13.3468 69.2794L15.5588 67.9494C15.6894 67.8841 15.8528 67.8514 16.0488 67.8514ZM19.305 77.6374C19.081 77.6374 18.9083 77.5768 18.787 77.4554C18.675 77.3341 18.619 77.1568 18.619 76.9234V76.6574C18.619 76.4334 18.675 76.2608 18.787 76.1394C18.9083 76.0181 19.081 75.9574 19.305 75.9574H19.445C19.6783 75.9574 19.851 76.0181 19.963 76.1394C20.0843 76.2608 20.145 76.4334 20.145 76.6574V76.9234C20.145 77.3994 19.9116 77.6374 19.445 77.6374H19.305ZM24.6488 71.0994C25.2555 71.0994 25.8061 71.2394 26.3008 71.5194C26.7955 71.7901 27.1828 72.1728 27.4628 72.6674C27.7428 73.1528 27.8828 73.6988 27.8828 74.3054C27.8828 74.9494 27.7148 75.5328 27.3788 76.0554C27.0521 76.5781 26.5995 76.9934 26.0208 77.3014C25.4515 77.6001 24.8261 77.7494 24.1448 77.7494C23.7621 77.7494 23.3795 77.6888 22.9968 77.5674C22.6141 77.4461 22.2921 77.2781 22.0308 77.0634C21.9375 76.9888 21.8628 76.8908 21.8068 76.7694C21.7508 76.6481 21.7228 76.5268 21.7228 76.4054C21.7228 76.2654 21.7788 76.1394 21.8908 76.0274C22.0121 75.9061 22.1661 75.8454 22.3528 75.8454C22.4741 75.8454 22.6375 75.9154 22.8428 76.0554C23.2628 76.3634 23.6921 76.5174 24.1308 76.5174C24.5788 76.5174 24.9848 76.4194 25.3488 76.2234C25.7221 76.0274 26.0161 75.7614 26.2308 75.4254C26.4455 75.0894 26.5528 74.7208 26.5528 74.3194C26.5528 73.7221 26.3568 73.2414 25.9648 72.8774C25.5728 72.5134 25.0781 72.3314 24.4808 72.3314C24.2288 72.3314 24.0048 72.3641 23.8088 72.4294C23.6221 72.4948 23.3935 72.5928 23.1228 72.7234C23.0108 72.7794 22.8988 72.8308 22.7868 72.8774C22.6841 72.9148 22.5955 72.9334 22.5208 72.9334C22.2501 72.9334 22.0495 72.8541 21.9188 72.6954C21.7881 72.5368 21.7228 72.3548 21.7228 72.1494L21.7368 72.0094L22.2408 68.3834C22.2688 68.2341 22.3435 68.1081 22.4648 68.0054C22.5955 67.9028 22.7495 67.8514 22.9268 67.8514H27.0428C27.2201 67.8514 27.3648 67.9121 27.4768 68.0334C27.5981 68.1548 27.6588 68.3041 27.6588 68.4814C27.6588 68.6588 27.5981 68.8081 27.4768 68.9294C27.3648 69.0414 27.2201 69.0974 27.0428 69.0974H23.3888L23.0248 71.4914C23.2301 71.3794 23.4775 71.2861 23.7668 71.2114C24.0655 71.1368 24.3595 71.0994 24.6488 71.0994Z" fill="#B2BAE9" style="fill:#B2BAE9;fill:color(display-p3 0.6980 0.7294 0.9137);fill-opacity:1;"/>
<path d="M19.479 40.4194C19.6563 40.4194 19.8057 40.4801 19.927 40.6014C20.0483 40.7228 20.109 40.8721 20.109 41.0494C20.109 41.2268 20.0483 41.3714 19.927 41.4834C19.8057 41.5954 19.6563 41.6514 19.479 41.6514H14.509C14.3223 41.6514 14.1683 41.5954 14.047 41.4834C13.9257 41.3621 13.865 41.2034 13.865 41.0074C13.865 40.8394 13.9303 40.6808 14.061 40.5314L17.183 37.1434C18.051 36.2194 18.485 35.4028 18.485 34.6934C18.485 34.1894 18.317 33.7741 17.981 33.4474C17.6543 33.1114 17.2343 32.9434 16.721 32.9434C16.3757 32.9434 16.0443 33.0414 15.727 33.2374C15.4097 33.4334 15.153 33.7134 14.957 34.0774C14.8077 34.2734 14.6303 34.3714 14.425 34.3714C14.2663 34.3714 14.117 34.3108 13.977 34.1894C13.837 34.0681 13.767 33.9281 13.767 33.7694C13.767 33.6668 13.7997 33.5594 13.865 33.4474C13.9397 33.3354 14.0423 33.2048 14.173 33.0554C14.481 32.6448 14.873 32.3181 15.349 32.0754C15.825 31.8328 16.3057 31.7114 16.791 31.7114C17.4163 31.7114 17.9577 31.8374 18.415 32.0894C18.8723 32.3414 19.2223 32.6868 19.465 33.1254C19.717 33.5641 19.843 34.0681 19.843 34.6374C19.843 35.7108 19.2643 36.8681 18.107 38.1094L15.993 40.4194H19.479ZM22.0806 41.6374C21.8566 41.6374 21.6839 41.5768 21.5626 41.4554C21.4506 41.3341 21.3946 41.1568 21.3946 40.9234V40.6574C21.3946 40.4334 21.4506 40.2608 21.5626 40.1394C21.6839 40.0181 21.8566 39.9574 22.0806 39.9574H22.2206C22.4539 39.9574 22.6266 40.0181 22.7386 40.1394C22.8599 40.2608 22.9206 40.4334 22.9206 40.6574V40.9234C22.9206 41.3994 22.6873 41.6374 22.2206 41.6374H22.0806ZM27.9424 41.7914C27.1771 41.7914 26.5238 41.5768 25.9824 41.1474C25.4411 40.7181 25.0304 40.1254 24.7504 39.3694C24.4798 38.6134 24.3444 37.7408 24.3444 36.7514C24.3444 35.7621 24.4798 34.8894 24.7504 34.1334C25.0304 33.3774 25.4411 32.7848 25.9824 32.3554C26.5238 31.9261 27.1771 31.7114 27.9424 31.7114C28.7078 31.7114 29.3611 31.9261 29.9024 32.3554C30.4438 32.7848 30.8498 33.3774 31.1204 34.1334C31.4004 34.8894 31.5404 35.7621 31.5404 36.7514C31.5404 37.7408 31.4004 38.6134 31.1204 39.3694C30.8498 40.1254 30.4438 40.7181 29.9024 41.1474C29.3611 41.5768 28.7078 41.7914 27.9424 41.7914ZM27.9424 40.4474C28.6238 40.4474 29.1511 40.1254 29.5244 39.4814C29.9071 38.8374 30.0984 37.9274 30.0984 36.7514C30.0984 35.5754 29.9071 34.6654 29.5244 34.0214C29.1511 33.3774 28.6238 33.0554 27.9424 33.0554C27.2611 33.0554 26.7291 33.3774 26.3464 34.0214C25.9731 34.6654 25.7864 35.5754 25.7864 36.7514C25.7864 37.9274 25.9731 38.8374 26.3464 39.4814C26.7291 40.1254 27.2611 40.4474 27.9424 40.4474Z" fill="#B2BAE9" style="fill:#B2BAE9;fill:color(display-p3 0.6980 0.7294 0.9137);fill-opacity:1;"/>
<line x1="38.9272" y1="143.651" x2="295.927" y2="143.651" stroke="#3E4790" style="stroke:#3E4790;stroke:color(display-p3 0.2431 0.2784 0.5647);stroke-opacity:1;" stroke-width="2" stroke-linecap="round" stroke-dasharray="2 6"/>
<line x1="38.927" y1="107.651" x2="295.927" y2="107.651" stroke="#3E4790" style="stroke:#3E4790;stroke:color(display-p3 0.2431 0.2784 0.5647);stroke-opacity:1;" stroke-width="2" stroke-linecap="round" stroke-dasharray="2 6"/>
<line x1="38.9272" y1="71.6514" x2="295.927" y2="71.6514" stroke="#3E4790" style="stroke:#3E4790;stroke:color(display-p3 0.2431 0.2784 0.5647);stroke-opacity:1;" stroke-width="2" stroke-linecap="round" stroke-dasharray="2 6"/>
<line x1="38.927" y1="35.6514" x2="295.927" y2="35.6514" stroke="#3E4790" style="stroke:#3E4790;stroke:color(display-p3 0.2431 0.2784 0.5647);stroke-opacity:1;" stroke-width="2" stroke-linecap="round" stroke-dasharray="2 6"/>
<path d="M52.3852 165.791C51.8346 165.791 51.3259 165.661 50.8592 165.399C50.4019 165.138 50.0379 164.779 49.7672 164.321C49.6832 164.191 49.6412 164.065 49.6412 163.943C49.6412 163.766 49.7112 163.617 49.8512 163.495C49.9912 163.365 50.1359 163.299 50.2852 163.299C50.4906 163.299 50.7006 163.416 50.9152 163.649C51.2792 164.191 51.7692 164.461 52.3852 164.461C52.8986 164.461 53.3326 164.289 53.6872 163.943C54.0419 163.598 54.2192 163.173 54.2192 162.669V156.523C54.2192 156.337 54.2892 156.178 54.4292 156.047C54.5692 155.917 54.7326 155.851 54.9192 155.851C55.1246 155.851 55.2879 155.917 55.4092 156.047C55.5399 156.169 55.6052 156.327 55.6052 156.523V162.669C55.6052 163.239 55.4652 163.761 55.1852 164.237C54.9052 164.713 54.5179 165.091 54.0232 165.371C53.5379 165.651 52.9919 165.791 52.3852 165.791ZM63.7052 158.217C63.9012 158.217 64.0599 158.283 64.1812 158.413C64.3119 158.535 64.3772 158.698 64.3772 158.903V164.979C64.3772 165.166 64.3119 165.325 64.1812 165.455C64.0599 165.586 63.9012 165.651 63.7052 165.651C63.5092 165.651 63.3506 165.591 63.2292 165.469C63.1079 165.339 63.0472 165.175 63.0472 164.979V164.615C62.8046 164.942 62.4732 165.222 62.0532 165.455C61.6332 165.679 61.1806 165.791 60.6952 165.791C60.0606 165.791 59.4819 165.628 58.9592 165.301C58.4459 164.975 58.0399 164.522 57.7412 163.943C57.4519 163.355 57.3072 162.697 57.3072 161.969C57.3072 161.241 57.4519 160.588 57.7412 160.009C58.0399 159.421 58.4459 158.964 58.9592 158.637C59.4726 158.311 60.0372 158.147 60.6532 158.147C61.1479 158.147 61.6052 158.25 62.0252 158.455C62.4546 158.661 62.7952 158.922 63.0472 159.239V158.903C63.0472 158.707 63.1079 158.544 63.2292 158.413C63.3506 158.283 63.5092 158.217 63.7052 158.217ZM60.8492 164.559C61.2879 164.559 61.6752 164.447 62.0112 164.223C62.3566 163.999 62.6226 163.691 62.8092 163.299C63.0052 162.907 63.1032 162.464 63.1032 161.969C63.1032 161.484 63.0052 161.045 62.8092 160.653C62.6226 160.261 62.3566 159.953 62.0112 159.729C61.6752 159.496 61.2879 159.379 60.8492 159.379C60.4106 159.379 60.0186 159.491 59.6732 159.715C59.3372 159.939 59.0712 160.247 58.8752 160.639C58.6886 161.031 58.5952 161.475 58.5952 161.969C58.5952 162.464 58.6886 162.907 58.8752 163.299C59.0712 163.691 59.3372 163.999 59.6732 164.223C60.0186 164.447 60.4106 164.559 60.8492 164.559ZM70.0928 158.147C71.7728 158.147 72.6128 159.155 72.6128 161.171V164.979C72.6128 165.166 72.5475 165.325 72.4168 165.455C72.2955 165.586 72.1368 165.651 71.9408 165.651C71.7542 165.651 71.5955 165.586 71.4648 165.455C71.3435 165.325 71.2828 165.166 71.2828 164.979V161.185C71.2828 160.635 71.1568 160.196 70.9048 159.869C70.6528 159.543 70.2422 159.379 69.6728 159.379C69.2995 159.379 68.9588 159.463 68.6508 159.631C68.3522 159.79 68.1142 160.009 67.9368 160.289C67.7688 160.56 67.6848 160.859 67.6848 161.185V164.979C67.6848 165.166 67.6195 165.325 67.4888 165.455C67.3675 165.586 67.2088 165.651 67.0128 165.651C66.8168 165.651 66.6582 165.591 66.5368 165.469C66.4155 165.339 66.3548 165.175 66.3548 164.979V158.987C66.3548 158.801 66.4155 158.642 66.5368 158.511C66.6675 158.381 66.8262 158.315 67.0128 158.315C67.2088 158.315 67.3675 158.381 67.4888 158.511C67.6195 158.642 67.6848 158.801 67.6848 158.987V159.477C67.9275 159.104 68.2635 158.791 68.6928 158.539C69.1315 158.278 69.5982 158.147 70.0928 158.147Z" fill="#B2BAE9" style="fill:#B2BAE9;fill:color(display-p3 0.6980 0.7294 0.9137);fill-opacity:1;"/>
<path d="M97.4608 157.139V160.037H100.905C101.101 160.037 101.259 160.098 101.381 160.219C101.511 160.341 101.577 160.499 101.577 160.695C101.577 160.863 101.511 161.008 101.381 161.129C101.259 161.251 101.101 161.311 100.905 161.311H97.4608V164.979C97.4608 165.166 97.3908 165.325 97.2508 165.455C97.1201 165.586 96.9614 165.651 96.7748 165.651C96.5788 165.651 96.4154 165.586 96.2848 165.455C96.1541 165.325 96.0888 165.166 96.0888 164.979V156.523C96.0888 156.337 96.1541 156.178 96.2848 156.047C96.4154 155.917 96.5741 155.851 96.7608 155.851H101.535C101.731 155.851 101.889 155.912 102.011 156.033C102.141 156.155 102.207 156.313 102.207 156.509C102.207 156.677 102.141 156.827 102.011 156.957C101.88 157.079 101.721 157.139 101.535 157.139H97.4608ZM110.058 161.703C110.049 161.871 109.979 162.016 109.848 162.137C109.717 162.249 109.563 162.305 109.386 162.305H104.458C104.523 162.987 104.78 163.533 105.228 163.943C105.685 164.354 106.241 164.559 106.894 164.559C107.342 164.559 107.706 164.494 107.986 164.363C108.266 164.233 108.513 164.065 108.728 163.859C108.868 163.775 109.003 163.733 109.134 163.733C109.293 163.733 109.423 163.789 109.526 163.901C109.638 164.013 109.694 164.144 109.694 164.293C109.694 164.489 109.601 164.667 109.414 164.825C109.143 165.096 108.784 165.325 108.336 165.511C107.888 165.698 107.431 165.791 106.964 165.791C106.208 165.791 105.541 165.633 104.962 165.315C104.393 164.998 103.949 164.555 103.632 163.985C103.324 163.416 103.17 162.772 103.17 162.053C103.17 161.269 103.329 160.583 103.646 159.995C103.973 159.398 104.397 158.941 104.92 158.623C105.452 158.306 106.021 158.147 106.628 158.147C107.225 158.147 107.785 158.301 108.308 158.609C108.831 158.917 109.251 159.342 109.568 159.883C109.885 160.425 110.049 161.031 110.058 161.703ZM106.628 159.379C106.105 159.379 105.653 159.529 105.27 159.827C104.887 160.117 104.635 160.569 104.514 161.185H108.644V161.073C108.597 160.579 108.373 160.173 107.972 159.855C107.58 159.538 107.132 159.379 106.628 159.379ZM115.284 158.147C115.919 158.147 116.493 158.311 117.006 158.637C117.52 158.964 117.921 159.417 118.21 159.995C118.509 160.574 118.658 161.227 118.658 161.955C118.658 162.683 118.509 163.341 118.21 163.929C117.921 164.517 117.52 164.975 117.006 165.301C116.493 165.628 115.928 165.791 115.312 165.791C114.827 165.791 114.374 165.684 113.954 165.469C113.534 165.255 113.194 164.989 112.932 164.671V165.077C112.932 165.264 112.867 165.423 112.736 165.553C112.615 165.684 112.456 165.749 112.26 165.749C112.074 165.749 111.915 165.689 111.784 165.567C111.663 165.437 111.602 165.273 111.602 165.077V155.963C111.602 155.767 111.663 155.609 111.784 155.487C111.906 155.357 112.064 155.291 112.26 155.291C112.456 155.291 112.615 155.357 112.736 155.487C112.867 155.618 112.932 155.777 112.932 155.963V159.379C113.156 159.043 113.483 158.754 113.912 158.511C114.342 158.269 114.799 158.147 115.284 158.147ZM115.13 164.559C115.56 164.559 115.947 164.447 116.292 164.223C116.638 163.99 116.904 163.677 117.09 163.285C117.286 162.884 117.384 162.441 117.384 161.955C117.384 161.47 117.286 161.031 117.09 160.639C116.904 160.247 116.638 159.939 116.292 159.715C115.947 159.491 115.56 159.379 115.13 159.379C114.692 159.379 114.3 159.491 113.954 159.715C113.609 159.939 113.338 160.247 113.142 160.639C112.956 161.022 112.862 161.461 112.862 161.955C112.862 162.45 112.956 162.893 113.142 163.285C113.338 163.677 113.609 163.99 113.954 164.223C114.3 164.447 114.692 164.559 115.13 164.559Z" fill="#B2BAE9" style="fill:#B2BAE9;fill:color(display-p3 0.6980 0.7294 0.9137);fill-opacity:1;"/>
<path d="M149.601 155.837C149.788 155.847 149.946 155.917 150.077 156.047C150.208 156.169 150.273 156.323 150.273 156.509V164.979C150.273 165.166 150.208 165.325 150.077 165.455C149.956 165.586 149.792 165.651 149.587 165.651C149.382 165.651 149.214 165.591 149.083 165.469C148.952 165.339 148.887 165.175 148.887 164.979V158.497L146.171 162.613C146.106 162.697 146.022 162.767 145.919 162.823C145.826 162.879 145.728 162.903 145.625 162.893C145.532 162.903 145.434 162.879 145.331 162.823C145.238 162.767 145.158 162.697 145.093 162.613L142.363 158.371V164.979C142.363 165.175 142.302 165.339 142.181 165.469C142.069 165.591 141.915 165.651 141.719 165.651C141.532 165.651 141.378 165.591 141.257 165.469C141.145 165.339 141.089 165.175 141.089 164.979V156.509C141.089 156.332 141.154 156.178 141.285 156.047C141.416 155.907 141.579 155.837 141.775 155.837C141.887 155.837 141.994 155.865 142.097 155.921C142.209 155.977 142.298 156.052 142.363 156.145L145.681 161.171L149.041 156.145C149.19 155.94 149.377 155.837 149.601 155.837ZM158.383 158.217C158.579 158.217 158.737 158.283 158.859 158.413C158.989 158.535 159.055 158.698 159.055 158.903V164.979C159.055 165.166 158.989 165.325 158.859 165.455C158.737 165.586 158.579 165.651 158.383 165.651C158.187 165.651 158.028 165.591 157.907 165.469C157.785 165.339 157.725 165.175 157.725 164.979V164.615C157.482 164.942 157.151 165.222 156.731 165.455C156.311 165.679 155.858 165.791 155.373 165.791C154.738 165.791 154.159 165.628 153.637 165.301C153.123 164.975 152.717 164.522 152.419 163.943C152.129 163.355 151.985 162.697 151.985 161.969C151.985 161.241 152.129 160.588 152.419 160.009C152.717 159.421 153.123 158.964 153.637 158.637C154.15 158.311 154.715 158.147 155.331 158.147C155.825 158.147 156.283 158.25 156.703 158.455C157.132 158.661 157.473 158.922 157.725 159.239V158.903C157.725 158.707 157.785 158.544 157.907 158.413C158.028 158.283 158.187 158.217 158.383 158.217ZM155.527 164.559C155.965 164.559 156.353 164.447 156.689 164.223C157.034 163.999 157.3 163.691 157.487 163.299C157.683 162.907 157.781 162.464 157.781 161.969C157.781 161.484 157.683 161.045 157.487 160.653C157.3 160.261 157.034 159.953 156.689 159.729C156.353 159.496 155.965 159.379 155.527 159.379C155.088 159.379 154.696 159.491 154.351 159.715C154.015 159.939 153.749 160.247 153.553 160.639C153.366 161.031 153.273 161.475 153.273 161.969C153.273 162.464 153.366 162.907 153.553 163.299C153.749 163.691 154.015 163.999 154.351 164.223C154.696 164.447 155.088 164.559 155.527 164.559ZM164.686 158.147C164.929 158.147 165.139 158.213 165.316 158.343C165.494 158.465 165.582 158.619 165.582 158.805C165.582 159.029 165.522 159.202 165.4 159.323C165.288 159.435 165.148 159.491 164.98 159.491C164.896 159.491 164.77 159.463 164.602 159.407C164.406 159.342 164.252 159.309 164.14 159.309C163.851 159.309 163.566 159.412 163.286 159.617C163.016 159.813 162.792 160.089 162.614 160.443C162.446 160.789 162.362 161.176 162.362 161.605V164.979C162.362 165.166 162.297 165.325 162.166 165.455C162.045 165.586 161.886 165.651 161.69 165.651C161.494 165.651 161.336 165.591 161.214 165.469C161.093 165.339 161.032 165.175 161.032 164.979V158.987C161.032 158.801 161.093 158.642 161.214 158.511C161.345 158.381 161.504 158.315 161.69 158.315C161.886 158.315 162.045 158.381 162.166 158.511C162.297 158.642 162.362 158.801 162.362 158.987V159.701C162.568 159.244 162.876 158.875 163.286 158.595C163.697 158.306 164.164 158.157 164.686 158.147Z" fill="#B2BAE9" style="fill:#B2BAE9;fill:color(display-p3 0.6980 0.7294 0.9137);fill-opacity:1;"/>
<path d="M195.621 164.783C195.649 164.867 195.663 164.956 195.663 165.049C195.663 165.236 195.597 165.39 195.467 165.511C195.345 165.633 195.201 165.693 195.033 165.693C194.902 165.693 194.781 165.656 194.669 165.581C194.566 165.497 194.482 165.385 194.417 165.245L193.549 163.187H189.223L188.369 165.259C188.322 165.399 188.243 165.507 188.131 165.581C188.028 165.656 187.911 165.693 187.781 165.693C187.585 165.693 187.435 165.642 187.333 165.539C187.23 165.437 187.179 165.297 187.179 165.119C187.179 165.082 187.188 165.007 187.207 164.895L190.777 156.243C190.842 156.094 190.931 155.982 191.043 155.907C191.164 155.823 191.299 155.791 191.449 155.809C191.589 155.809 191.715 155.847 191.827 155.921C191.939 155.996 192.018 156.103 192.065 156.243L195.621 164.783ZM189.755 161.913H193.017L191.379 157.993L189.755 161.913ZM200.585 158.189C201.22 158.189 201.794 158.353 202.307 158.679C202.821 158.997 203.222 159.445 203.511 160.023C203.81 160.602 203.959 161.255 203.959 161.983C203.959 162.711 203.81 163.365 203.511 163.943C203.222 164.513 202.821 164.961 202.307 165.287C201.794 165.614 201.229 165.777 200.613 165.777C200.128 165.777 199.675 165.67 199.255 165.455C198.835 165.241 198.495 164.979 198.233 164.671V167.779C198.233 167.966 198.168 168.125 198.037 168.255C197.916 168.386 197.757 168.451 197.561 168.451C197.375 168.451 197.216 168.386 197.085 168.255C196.964 168.134 196.903 167.975 196.903 167.779V158.973C196.903 158.777 196.964 158.614 197.085 158.483C197.207 158.353 197.365 158.287 197.561 158.287C197.757 158.287 197.916 158.353 198.037 158.483C198.168 158.614 198.233 158.777 198.233 158.973V159.379C198.457 159.053 198.784 158.773 199.213 158.539C199.643 158.306 200.1 158.189 200.585 158.189ZM200.431 164.545C200.861 164.545 201.248 164.433 201.593 164.209C201.939 163.985 202.205 163.682 202.391 163.299C202.587 162.907 202.685 162.469 202.685 161.983C202.685 161.498 202.587 161.064 202.391 160.681C202.205 160.289 201.939 159.981 201.593 159.757C201.248 159.533 200.861 159.421 200.431 159.421C199.993 159.421 199.601 159.533 199.255 159.757C198.91 159.972 198.639 160.275 198.443 160.667C198.257 161.059 198.163 161.498 198.163 161.983C198.163 162.469 198.257 162.907 198.443 163.299C198.639 163.691 198.91 163.999 199.255 164.223C199.601 164.438 199.993 164.545 200.431 164.545ZM209.157 158.147C209.399 158.147 209.609 158.213 209.787 158.343C209.964 158.465 210.053 158.619 210.053 158.805C210.053 159.029 209.992 159.202 209.871 159.323C209.759 159.435 209.619 159.491 209.451 159.491C209.367 159.491 209.241 159.463 209.073 159.407C208.877 159.342 208.723 159.309 208.611 159.309C208.321 159.309 208.037 159.412 207.757 159.617C207.486 159.813 207.262 160.089 207.085 160.443C206.917 160.789 206.833 161.176 206.833 161.605V164.979C206.833 165.166 206.767 165.325 206.637 165.455C206.515 165.586 206.357 165.651 206.161 165.651C205.965 165.651 205.806 165.591 205.685 165.469C205.563 165.339 205.503 165.175 205.503 164.979V158.987C205.503 158.801 205.563 158.642 205.685 158.511C205.815 158.381 205.974 158.315 206.161 158.315C206.357 158.315 206.515 158.381 206.637 158.511C206.767 158.642 206.833 158.801 206.833 158.987V159.701C207.038 159.244 207.346 158.875 207.757 158.595C208.167 158.306 208.634 158.157 209.157 158.147Z" fill="#B2BAE9" style="fill:#B2BAE9;fill:color(display-p3 0.6980 0.7294 0.9137);fill-opacity:1;"/>
<path d="M240.601 155.837C240.788 155.847 240.946 155.917 241.077 156.047C241.208 156.169 241.273 156.323 241.273 156.509V164.979C241.273 165.166 241.208 165.325 241.077 165.455C240.956 165.586 240.792 165.651 240.587 165.651C240.382 165.651 240.214 165.591 240.083 165.469C239.952 165.339 239.887 165.175 239.887 164.979V158.497L237.171 162.613C237.106 162.697 237.022 162.767 236.919 162.823C236.826 162.879 236.728 162.903 236.625 162.893C236.532 162.903 236.434 162.879 236.331 162.823C236.238 162.767 236.158 162.697 236.093 162.613L233.363 158.371V164.979C233.363 165.175 233.302 165.339 233.181 165.469C233.069 165.591 232.915 165.651 232.719 165.651C232.532 165.651 232.378 165.591 232.257 165.469C232.145 165.339 232.089 165.175 232.089 164.979V156.509C232.089 156.332 232.154 156.178 232.285 156.047C232.416 155.907 232.579 155.837 232.775 155.837C232.887 155.837 232.994 155.865 233.097 155.921C233.209 155.977 233.298 156.052 233.363 156.145L236.681 161.171L240.041 156.145C240.19 155.94 240.377 155.837 240.601 155.837ZM249.383 158.217C249.579 158.217 249.737 158.283 249.859 158.413C249.989 158.535 250.055 158.698 250.055 158.903V164.979C250.055 165.166 249.989 165.325 249.859 165.455C249.737 165.586 249.579 165.651 249.383 165.651C249.187 165.651 249.028 165.591 248.907 165.469C248.785 165.339 248.725 165.175 248.725 164.979V164.615C248.482 164.942 248.151 165.222 247.731 165.455C247.311 165.679 246.858 165.791 246.373 165.791C245.738 165.791 245.159 165.628 244.637 165.301C244.123 164.975 243.717 164.522 243.419 163.943C243.129 163.355 242.985 162.697 242.985 161.969C242.985 161.241 243.129 160.588 243.419 160.009C243.717 159.421 244.123 158.964 244.637 158.637C245.15 158.311 245.715 158.147 246.331 158.147C246.825 158.147 247.283 158.25 247.703 158.455C248.132 158.661 248.473 158.922 248.725 159.239V158.903C248.725 158.707 248.785 158.544 248.907 158.413C249.028 158.283 249.187 158.217 249.383 158.217ZM246.527 164.559C246.965 164.559 247.353 164.447 247.689 164.223C248.034 163.999 248.3 163.691 248.487 163.299C248.683 162.907 248.781 162.464 248.781 161.969C248.781 161.484 248.683 161.045 248.487 160.653C248.3 160.261 248.034 159.953 247.689 159.729C247.353 159.496 246.965 159.379 246.527 159.379C246.088 159.379 245.696 159.491 245.351 159.715C245.015 159.939 244.749 160.247 244.553 160.639C244.366 161.031 244.273 161.475 244.273 161.969C244.273 162.464 244.366 162.907 244.553 163.299C244.749 163.691 245.015 163.999 245.351 164.223C245.696 164.447 246.088 164.559 246.527 164.559ZM257.328 158.245C257.524 158.245 257.683 158.311 257.804 158.441C257.935 158.572 258 158.731 258 158.917V164.965C258 166.132 257.678 167.005 257.034 167.583C256.39 168.162 255.541 168.451 254.486 168.451C254.141 168.451 253.8 168.419 253.464 168.353C253.128 168.288 252.853 168.199 252.638 168.087C252.293 167.929 252.12 167.714 252.12 167.443C252.12 167.397 252.13 167.336 252.148 167.261C252.204 167.103 252.284 166.981 252.386 166.897C252.489 166.813 252.606 166.771 252.736 166.771C252.811 166.771 252.881 166.785 252.946 166.813C253.236 166.944 253.492 167.047 253.716 167.121C253.94 167.196 254.202 167.233 254.5 167.233C255.947 167.233 256.67 166.491 256.67 165.007V164.727C256.418 165.063 256.092 165.325 255.69 165.511C255.298 165.698 254.846 165.791 254.332 165.791C253.558 165.791 252.951 165.544 252.512 165.049C252.083 164.555 251.868 163.906 251.868 163.103V158.917C251.868 158.721 251.929 158.563 252.05 158.441C252.172 158.311 252.33 158.245 252.526 158.245C252.722 158.245 252.881 158.311 253.002 158.441C253.133 158.572 253.198 158.731 253.198 158.917V162.753C253.198 163.369 253.334 163.827 253.604 164.125C253.875 164.415 254.286 164.559 254.836 164.559C255.368 164.559 255.807 164.391 256.152 164.055C256.498 163.719 256.67 163.285 256.67 162.753V158.917C256.67 158.721 256.731 158.563 256.852 158.441C256.974 158.311 257.132 158.245 257.328 158.245Z" fill="#B2BAE9" style="fill:#B2BAE9;fill:color(display-p3 0.6980 0.7294 0.9137);fill-opacity:1;"/>
<path d="M281.385 165.791C280.835 165.791 280.326 165.661 279.859 165.399C279.402 165.138 279.038 164.779 278.767 164.321C278.683 164.191 278.641 164.065 278.641 163.943C278.641 163.766 278.711 163.617 278.851 163.495C278.991 163.365 279.136 163.299 279.285 163.299C279.491 163.299 279.701 163.416 279.915 163.649C280.279 164.191 280.769 164.461 281.385 164.461C281.899 164.461 282.333 164.289 282.687 163.943C283.042 163.598 283.219 163.173 283.219 162.669V156.523C283.219 156.337 283.289 156.178 283.429 156.047C283.569 155.917 283.733 155.851 283.919 155.851C284.125 155.851 284.288 155.917 284.409 156.047C284.54 156.169 284.605 156.327 284.605 156.523V162.669C284.605 163.239 284.465 163.761 284.185 164.237C283.905 164.713 283.518 165.091 283.023 165.371C282.538 165.651 281.992 165.791 281.385 165.791ZM292.215 158.315C292.411 158.315 292.57 158.381 292.691 158.511C292.822 158.642 292.887 158.801 292.887 158.987V162.711C292.887 163.682 292.617 164.438 292.075 164.979C291.543 165.511 290.787 165.777 289.807 165.777C288.837 165.777 288.085 165.511 287.553 164.979C287.021 164.438 286.755 163.682 286.755 162.711V158.987C286.755 158.801 286.816 158.642 286.937 158.511C287.068 158.381 287.227 158.315 287.413 158.315C287.609 158.315 287.768 158.381 287.889 158.511C288.02 158.642 288.085 158.801 288.085 158.987V162.711C288.085 163.934 288.659 164.545 289.807 164.545C290.377 164.545 290.811 164.391 291.109 164.083C291.408 163.775 291.557 163.318 291.557 162.711V158.987C291.557 158.801 291.618 158.642 291.739 158.511C291.87 158.381 292.029 158.315 292.215 158.315ZM298.614 158.147C300.294 158.147 301.134 159.155 301.134 161.171V164.979C301.134 165.166 301.069 165.325 300.938 165.455C300.817 165.586 300.658 165.651 300.462 165.651C300.276 165.651 300.117 165.586 299.986 165.455C299.865 165.325 299.804 165.166 299.804 164.979V161.185C299.804 160.635 299.678 160.196 299.426 159.869C299.174 159.543 298.764 159.379 298.194 159.379C297.821 159.379 297.48 159.463 297.172 159.631C296.874 159.79 296.636 160.009 296.458 160.289C296.29 160.56 296.206 160.859 296.206 161.185V164.979C296.206 165.166 296.141 165.325 296.01 165.455C295.889 165.586 295.73 165.651 295.534 165.651C295.338 165.651 295.18 165.591 295.058 165.469C294.937 165.339 294.876 165.175 294.876 164.979V158.987C294.876 158.801 294.937 158.642 295.058 158.511C295.189 158.381 295.348 158.315 295.534 158.315C295.73 158.315 295.889 158.381 296.01 158.511C296.141 158.642 296.206 158.801 296.206 158.987V159.477C296.449 159.104 296.785 158.791 297.214 158.539C297.653 158.278 298.12 158.147 298.614 158.147Z" fill="#B2BAE9" style="fill:#B2BAE9;fill:color(display-p3 0.6980 0.7294 0.9137);fill-opacity:1;"/>
<path d="M46.927 99.6515C46.927 95.7855 50.061 92.6515 53.927 92.6515C57.793 92.6515 60.927 95.7855 60.927 99.6515V144.651H46.927V99.6515Z" fill="url(#paint0_linear_8016_1204)" style=""/>
<path d="M94.927 79.6515C94.927 75.7855 98.061 72.6515 101.927 72.6515C105.793 72.6515 108.927 75.7855 108.927 79.6515V144.651H94.927V79.6515Z" fill="url(#paint1_linear_8016_1204)" style=""/>
<path d="M190.927 43.6515C190.927 39.7855 194.061 36.6515 197.927 36.6515C201.793 36.6515 204.927 39.7855 204.927 43.6515V144.651H190.927V43.6515Z" fill="url(#paint2_linear_8016_1204)" style=""/>
<path d="M142.927 27.6515C142.927 23.7855 146.061 20.6515 149.927 20.6515C153.793 20.6515 156.927 23.7855 156.927 27.6515V144.651H142.927V27.6515Z" fill="url(#paint3_linear_8016_1204)" style=""/>
<path d="M238.927 91.6515C238.927 87.7855 242.061 84.6515 245.927 84.6515C249.793 84.6515 252.927 87.7855 252.927 91.6515V144.651H238.927V91.6515Z" fill="url(#paint4_linear_8016_1204)" style=""/>
<path d="M286.927 61.6515C286.927 57.7855 290.061 54.6515 293.927 54.6515C297.793 54.6515 300.927 57.7855 300.927 61.6515V144.651H286.927V61.6515Z" fill="url(#paint5_linear_8016_1204)" style=""/>
<defs>
<filter id="filter0_b_8016_1204" x="-9.073" y="-9.34857" width="340" height="204" filterUnits="userSpaceOnUse" color-interpolation-filters="sRGB">
<feFlood flood-opacity="0" result="BackgroundImageFix"/>
<feGaussianBlur in="BackgroundImageFix" stdDeviation="5"/>
<feComposite in2="SourceAlpha" operator="in" result="effect1_backgroundBlur_8016_1204"/>
<feBlend mode="normal" in="SourceGraphic" in2="effect1_backgroundBlur_8016_1204" result="shape"/>
</filter>
<linearGradient id="paint0_linear_8016_1204" x1="25.427" y1="106.807" x2="64.9046" y2="148.029" gradientUnits="userSpaceOnUse">
<stop offset="0.0001" stop-color="#78DFEA" style="stop-color:#78DFEA;stop-color:color(display-p3 0.4706 0.8745 0.9176);stop-opacity:1;"/>
<stop offset="0.489583" stop-color="#6A97DA" style="stop-color:#6A97DA;stop-color:color(display-p3 0.4157 0.5922 0.8549);stop-opacity:1;"/>
<stop offset="1" stop-color="#9526CD" style="stop-color:#9526CD;stop-color:color(display-p3 0.5843 0.1490 0.8039);stop-opacity:1;"/>
</linearGradient>
<linearGradient id="paint1_linear_8016_1204" x1="73.427" y1="92.2515" x2="126.031" y2="131.922" gradientUnits="userSpaceOnUse">
<stop offset="0.0001" stop-color="#78DFEA" style="stop-color:#78DFEA;stop-color:color(display-p3 0.4706 0.8745 0.9176);stop-opacity:1;"/>
<stop offset="0.489583" stop-color="#6A97DA" style="stop-color:#6A97DA;stop-color:color(display-p3 0.4157 0.5922 0.8549);stop-opacity:1;"/>
<stop offset="1" stop-color="#9526CD" style="stop-color:#9526CD;stop-color:color(display-p3 0.5843 0.1490 0.8039);stop-opacity:1;"/>
</linearGradient>
<linearGradient id="paint2_linear_8016_1204" x1="169.427" y1="66.0515" x2="235.298" y2="99.1684" gradientUnits="userSpaceOnUse">
<stop offset="0.0001" stop-color="#78DFEA" style="stop-color:#78DFEA;stop-color:color(display-p3 0.4706 0.8745 0.9176);stop-opacity:1;"/>
<stop offset="0.489583" stop-color="#6A97DA" style="stop-color:#6A97DA;stop-color:color(display-p3 0.4157 0.5922 0.8549);stop-opacity:1;"/>
<stop offset="1" stop-color="#9526CD" style="stop-color:#9526CD;stop-color:color(display-p3 0.5843 0.1490 0.8039);stop-opacity:1;"/>
</linearGradient>
<linearGradient id="paint3_linear_8016_1204" x1="121.427" y1="54.407" x2="190.671" y2="84.7277" gradientUnits="userSpaceOnUse">
<stop offset="0.0001" stop-color="#78DFEA" style="stop-color:#78DFEA;stop-color:color(display-p3 0.4706 0.8745 0.9176);stop-opacity:1;"/>
<stop offset="0.489583" stop-color="#6A97DA" style="stop-color:#6A97DA;stop-color:color(display-p3 0.4157 0.5922 0.8549);stop-opacity:1;"/>
<stop offset="1" stop-color="#9526CD" style="stop-color:#9526CD;stop-color:color(display-p3 0.5843 0.1490 0.8039);stop-opacity:1;"/>
</linearGradient>
<linearGradient id="paint4_linear_8016_1204" x1="217.427" y1="100.985" x2="262.794" y2="142.04" gradientUnits="userSpaceOnUse">
<stop offset="0.0001" stop-color="#78DFEA" style="stop-color:#78DFEA;stop-color:color(display-p3 0.4706 0.8745 0.9176);stop-opacity:1;"/>
<stop offset="0.489583" stop-color="#6A97DA" style="stop-color:#6A97DA;stop-color:color(display-p3 0.4157 0.5922 0.8549);stop-opacity:1;"/>
<stop offset="1" stop-color="#9526CD" style="stop-color:#9526CD;stop-color:color(display-p3 0.5843 0.1490 0.8039);stop-opacity:1;"/>
</linearGradient>
<linearGradient id="paint5_linear_8016_1204" x1="265.427" y1="79.1515" x2="325.927" y2="115.651" gradientUnits="userSpaceOnUse">
<stop offset="0.0001" stop-color="#78DFEA" style="stop-color:#78DFEA;stop-color:color(display-p3 0.4706 0.8745 0.9176);stop-opacity:1;"/>
<stop offset="0.489583" stop-color="#6A97DA" style="stop-color:#6A97DA;stop-color:color(display-p3 0.4157 0.5922 0.8549);stop-opacity:1;"/>
<stop offset="1" stop-color="#9526CD" style="stop-color:#9526CD;stop-color:color(display-p3 0.5843 0.1490 0.8039);stop-opacity:1;"/>
</linearGradient>
</defs>
</svg>
